<?xml version="1.0" encoding="UTF-8"?>
<svg version="1.1" xmlns="http://www.w3.org/2000/svg" width="64" height="64">
<path d="M0 0 C21.12 0 42.24 0 64 0 C64 21.12 64 42.24 64 64 C42.88 64 21.76 64 0 64 C0 42.88 0 21.76 0 0 Z " fill="#DC9E19" transform="translate(0,0)"/>
<path d="M0 0 C21.12 0 42.24 0 64 0 C64 21.12 64 42.24 64 64 C42.88 64 21.76 64 0 64 C0 56.41 0 48.82 0 41 C3.8726592 40.0318352 7.03611362 39.92377142 11 40 C11 41.32 11 42.64 11 44 C11.99 44 12.98 44 14 44 C14 44.66 14 45.32 14 46 C13.34 46 12.68 46 12 46 C12 46.66 12 47.32 12 48 C12.66 48.33 13.32 48.66 14 49 C12.68 49 11.36 49 10 49 C10 47.68 10 46.36 10 45 C8.02 45 6.04 45 4 45 C4 46.32 4 47.64 4 49 C5.65 49 7.3 49 9 49 C9 50.65 9 52.3 9 54 C7.35 54 5.7 54 4 54 C4 55.32 4 56.64 4 58 C5.65 58 7.3 58 9 58 C9 59.32 9 60.64 9 62 C12.63 62 16.26 62 20 62 C20 60.68 20 59.36 20 58 C22.91659375 57.83196579 25.83326342 57.66552033 28.75 57.5 C29.575 57.45230469 30.4 57.40460937 31.25 57.35546875 C32.04921875 57.31035156 32.8484375 57.26523437 33.671875 57.21875 C34.4050293 57.17685547 35.13818359 57.13496094 35.89355469 57.09179688 C37.92733614 57.00316662 39.96428825 57 42 57 C42.33 55.68 42.66 54.36 43 53 C46.63 53.33 50.26 53.66 54 54 C54 49.38 54 44.76 54 40 C52.02 40 50.04 40 48 40 C48 38.68 48 37.36 48 36 C45.03 36.495 45.03 36.495 42 37 C42 36.34 42 35.68 42 35 C41.42926758 35.15847412 40.85853516 35.31694824 40.27050781 35.48022461 C38.02789812 35.99361343 35.96682085 36.20165896 33.671875 36.31640625 C32.87265625 36.35830078 32.0734375 36.40019531 31.25 36.44335938 C30.425 36.48267578 29.6 36.52199219 28.75 36.5625 C27.90953125 36.60568359 27.0690625 36.64886719 26.203125 36.69335938 C24.13559329 36.79908543 22.06781719 36.90001295 20 37 C20 32.71 20 28.42 20 24 C21.32 24.66 22.64 25.32 24 26 C26.4791959 26.28920915 26.4791959 26.28920915 29.1328125 26.23046875 C30.10347656 26.22853516 31.07414062 26.22660156 32.07421875 26.22460938 C33.08097656 26.21236328 34.08773437 26.20011719 35.125 26.1875 C36.13949219 26.18685547 37.15398438 26.18621094 38.19921875 26.18554688 C43.26354031 26.36704066 43.26354031 26.36704066 48 25 C48.495 23.515 48.495 23.515 49 22 C41.41 22 33.82 22 26 22 C26 21.34 26 20.68 26 20 C25.01 20 24.02 20 23 20 C23 19.34 23 18.68 23 18 C22.34 18 21.68 18 21 18 C21.33 17.34 21.66 16.68 22 16 C22.66 16.33 23.32 16.66 24 17 C24 17.66 24 18.32 24 19 C24.99 19 25.98 19 27 19 C27 19.66 27 20.32 27 21 C28.3303125 20.7525 28.3303125 20.7525 29.6875 20.5 C43.90455272 18.45227636 43.90455272 18.45227636 49 21 C49 20.34 49 19.68 49 19 C47.68 18.67 46.36 18.34 45 18 C44.67 16.35 44.34 14.7 44 13 C43.67 13.66 43.34 14.32 43 15 C39.41255082 16.09616503 36.55676237 16.24967327 33 15 C31.6875 12.9375 31.6875 12.9375 31 11 C34.79932854 9.58629636 37.93450173 8.57205281 42 9 C42.59554687 9.32226562 43.19109375 9.64453125 43.8046875 9.9765625 C46.43532179 11.20294361 48.61178127 11.410764 51.5 11.625 C52.4384375 11.69976562 53.376875 11.77453125 54.34375 11.8515625 C56.55959447 11.9753891 58.78069836 12 61 12 C61 9.36 61 6.72 61 4 C57.05342109 3.84989606 53.10798201 3.74198101 49.15917969 3.67041016 C47.16802472 3.62596047 45.17766201 3.54965657 43.1875 3.47265625 C34.36844554 3.33903421 29.04103629 4.68625565 22 10 C21.01 10.495 21.01 10.495 20 11 C20 10.34 20 9.68 20 9 C17.69 9 15.38 9 13 9 C13 9.99 13 10.98 13 12 C12.34 12 11.68 12 11 12 C10.67 11.34 10.34 10.68 10 10 C9.67 10.66 9.34 11.32 9 12 C7.68 12 6.36 12 5 12 C5 12.66 5 13.32 5 14 C4.34 14 3.68 14 3 14 C3 16.31 3 18.62 3 21 C2.01 21 1.02 21 0 21 C0 14.07 0 7.14 0 0 Z " fill="#F8F4D0" transform="translate(0,0)"/>
<path d="M0 0 C0.66 0 1.32 0 2 0 C2 1.32 2 2.64 2 4 C2.66 4 3.32 4 4 4 C4.33 8.29 4.66 12.58 5 17 C5.99 17 6.98 17 8 17 C8.66 15.35 9.32 13.7 10 12 C13.47874757 11.80409556 16.95800904 11.61968408 20.4375 11.4375 C21.43072266 11.38142578 22.42394531 11.32535156 23.44726562 11.26757812 C24.39150391 11.21923828 25.33574219 11.17089844 26.30859375 11.12109375 C27.18314209 11.0739624 28.05769043 11.02683105 28.95874023 10.97827148 C31 11 31 11 32 12 C33.66617115 12.04063832 35.33388095 12.042721 37 12 C37 13.32 37 14.64 37 16 C38.98 16 40.96 16 43 16 C43 20.62 43 25.24 43 30 C39.37 30 35.74 30 32 30 C32 31.32 32 32.64 32 34 C24.41 34 16.82 34 9 34 C9 35.32 9 36.64 9 38 C5.37 38 1.74 38 -2 38 C-2 36.68 -2 35.36 -2 34 C-3.65 34 -5.3 34 -7 34 C-7 32.68 -7 31.36 -7 30 C-5.35 30 -3.7 30 -2 30 C-2 28.35 -2 26.7 -2 25 C-3.65 25 -5.3 25 -7 25 C-7 23.68 -7 22.36 -7 21 C-5.02 21 -3.04 21 -1 21 C-1 22.32 -1 23.64 -1 25 C-0.34 24.67 0.32 24.34 1 24 C1 23.34 1 22.68 1 22 C1.66 22 2.32 22 3 22 C3 21.34 3 20.68 3 20 C2.01 20 1.02 20 0 20 C0 18.68 0 17.36 0 16 C-3.63 16.33 -7.26 16.66 -11 17 C-10.01 16.67 -9.02 16.34 -8 16 C-8 13.69 -8 11.38 -8 9 C-6.35 9.33 -4.7 9.66 -3 10 C-3.99 10.495 -3.99 10.495 -5 11 C-5 11.66 -5 12.32 -5 13 C-3.68 13.66 -2.36 14.32 -1 15 C-1.01160156 14.25234375 -1.02320313 13.5046875 -1.03515625 12.734375 C-1.04869141 11.25710937 -1.04869141 11.25710937 -1.0625 9.75 C-1.07410156 8.77546875 -1.08570313 7.8009375 -1.09765625 6.796875 C-1.01195577 4.34241322 -0.70706066 2.33831086 0 0 Z " fill="#613A28" transform="translate(11,24)"/>
<path d="M0 0 C21.12 0 42.24 0 64 0 C64 7.26 64 14.52 64 22 C59 25 59 25 57 25 C56.505 20.545 56.505 20.545 56 16 C55.34 16 54.68 16 54 16 C54 14.68 54 13.36 54 12 C56.31 12 58.62 12 61 12 C61 9.36 61 6.72 61 4 C57.05342109 3.84989606 53.10798201 3.74198101 49.15917969 3.67041016 C47.16802472 3.62596047 45.17766201 3.54965657 43.1875 3.47265625 C34.36844554 3.33903421 29.04103629 4.68625565 22 10 C21.01 10.495 21.01 10.495 20 11 C20 10.34 20 9.68 20 9 C17.69 9 15.38 9 13 9 C13 9.99 13 10.98 13 12 C12.34 12 11.68 12 11 12 C10.67 11.34 10.34 10.68 10 10 C9.67 10.66 9.34 11.32 9 12 C7.68 12 6.36 12 5 12 C5 12.66 5 13.32 5 14 C4.34 14 3.68 14 3 14 C3 16.31 3 18.62 3 21 C2.01 21 1.02 21 0 21 C0 14.07 0 7.14 0 0 Z " fill="#F7F3D0" transform="translate(0,0)"/>
<path d="M0 0 C1.80404297 -0.00193359 1.80404297 -0.00193359 3.64453125 -0.00390625 C4.90652344 -0.00003906 6.16851562 0.00382813 7.46875 0.0078125 C9.36173828 0.00201172 9.36173828 0.00201172 11.29296875 -0.00390625 C12.49566406 -0.00261719 13.69835937 -0.00132813 14.9375 0 C16.04544922 0.00112793 17.15339844 0.00225586 18.29492188 0.00341797 C20.96875 0.1328125 20.96875 0.1328125 22.96875 1.1328125 C22.96875 3.7728125 22.96875 6.4128125 22.96875 9.1328125 C21.64875 9.1328125 20.32875 9.1328125 18.96875 9.1328125 C18.63875 9.7928125 18.30875 10.4528125 17.96875 11.1328125 C17.96875 10.4728125 17.96875 9.8128125 17.96875 9.1328125 C17.30875 9.1328125 16.64875 9.1328125 15.96875 9.1328125 C15.63875 10.1228125 15.30875 11.1128125 14.96875 12.1328125 C14.96875 11.1428125 14.96875 10.1528125 14.96875 9.1328125 C13.4528125 9.1946875 13.4528125 9.1946875 11.90625 9.2578125 C7.96875 9.1328125 7.96875 9.1328125 4.40625 8.0703125 C0.7653922 7.07735128 -1.40610394 7.24863053 -5.03125 8.1328125 C-5.03125 8.7928125 -5.03125 9.4528125 -5.03125 10.1328125 C-1.20029304 11.99356302 0.87230506 12.21082433 4.96875 11.1328125 C5.95875 11.1328125 6.94875 11.1328125 7.96875 11.1328125 C7.96875 12.4528125 7.96875 13.7728125 7.96875 15.1328125 C8.95875 15.4628125 9.94875 15.7928125 10.96875 16.1328125 C10.96875 16.7928125 10.96875 17.4528125 10.96875 18.1328125 C3.70875 18.1328125 -3.55125 18.1328125 -11.03125 18.1328125 C-11.03125 17.4728125 -11.03125 16.8128125 -11.03125 16.1328125 C-12.02125 16.1328125 -13.01125 16.1328125 -14.03125 16.1328125 C-14.03125 15.4728125 -14.03125 14.8128125 -14.03125 14.1328125 C-15.35125 13.8028125 -16.67125 13.4728125 -18.03125 13.1328125 C-18.09375 10.5078125 -18.09375 10.5078125 -17.03125 7.1328125 C-11.66305096 2.57194027 -7.01521491 0.00714173 0 0 Z " fill="#461406" transform="translate(38.03125,2.8671875)"/>
<path d="M0 0 C0 1.32 0 2.64 0 4 C1.98 4 3.96 4 6 4 C6 8.62 6 13.24 6 18 C2.37 18 -1.26 18 -5 18 C-5 19.32 -5 20.64 -5 22 C-8.96 21.67 -12.92 21.34 -17 21 C-17 20.01 -17 19.02 -17 18 C-15.35 18 -13.7 18 -12 18 C-12 16.35 -12 14.7 -12 13 C-13.32 12.67 -14.64 12.34 -16 12 C-14.68 12 -13.36 12 -12 12 C-12 11.34 -12 10.68 -12 10 C-13.32 10 -14.64 10 -16 10 C-16 9.34 -16 8.68 -16 8 C-16.99 8 -17.98 8 -19 8 C-19 6.68 -19 5.36 -19 4 C-18.34 4 -17.68 4 -17 4 C-17 2.68 -17 1.36 -17 0 C-11.1314592 -1.14819277 -5.9114744 -0.77313045 0 0 Z " fill="#5A2B16" transform="translate(48,36)"/>
<path d="M0 0 C0.66 0 1.32 0 2 0 C2 1.32 2 2.64 2 4 C2.66 4 3.32 4 4 4 C4.33 8.29 4.66 12.58 5 17 C5.99 17 6.98 17 8 17 C8.66 15.35 9.32 13.7 10 12 C11.65 12 13.3 12 15 12 C15 13.32 15 14.64 15 16 C13.35 16 11.7 16 10 16 C10 17.32 10 18.64 10 20 C11.65 20 13.3 20 15 20 C14.67 20.99 14.34 21.98 14 23 C14 22.34 14 21.68 14 21 C10.87802522 22.3089572 10.87802522 22.3089572 9 25 C7.35 25 5.7 25 4 25 C4 27.64 4 30.28 4 33 C2.68 33 1.36 33 0 33 C0 32.01 0 31.02 0 30 C0.99 30 1.98 30 3 30 C3 28.68 3 27.36 3 26 C2.67 26.99 2.34 27.98 2 29 C1.01 29 0.02 29 -1 29 C-1 31.97 -1 34.94 -1 38 C-1.33 36.68 -1.66 35.36 -2 34 C-3.65 34 -5.3 34 -7 34 C-7 32.68 -7 31.36 -7 30 C-5.35 30 -3.7 30 -2 30 C-2 28.35 -2 26.7 -2 25 C-3.65 25 -5.3 25 -7 25 C-7 23.68 -7 22.36 -7 21 C-5.02 21 -3.04 21 -1 21 C-1 22.32 -1 23.64 -1 25 C-0.34 24.67 0.32 24.34 1 24 C1 23.34 1 22.68 1 22 C1.66 22 2.32 22 3 22 C3 21.34 3 20.68 3 20 C2.01 20 1.02 20 0 20 C0 18.68 0 17.36 0 16 C-3.63 16.33 -7.26 16.66 -11 17 C-10.01 16.67 -9.02 16.34 -8 16 C-8 13.69 -8 11.38 -8 9 C-6.35 9.33 -4.7 9.66 -3 10 C-3.99 10.495 -3.99 10.495 -5 11 C-5 11.66 -5 12.32 -5 13 C-3.68 13.66 -2.36 14.32 -1 15 C-1.01160156 14.25234375 -1.02320313 13.5046875 -1.03515625 12.734375 C-1.04869141 11.25710937 -1.04869141 11.25710937 -1.0625 9.75 C-1.07410156 8.77546875 -1.08570313 7.8009375 -1.09765625 6.796875 C-1.01195577 4.34241322 -0.70706066 2.33831086 0 0 Z " fill="#582911" transform="translate(11,24)"/>
<path d="M0 0 C1.34977849 0.63270867 2.68352881 1.30062468 4 2 C6.32495277 2.38749213 8.65851268 2.72982839 11 3 C11.33 3.99 11.66 4.98 12 6 C12.515625 6.4125 13.03125 6.825 13.5625 7.25 C15.8039884 9.97876849 15.1923317 12.60213991 15 16 C15.598125 15.505 16.19625 15.01 16.8125 14.5 C19 13 19 13 22 13 C22.375 16.1875 22.375 16.1875 22 20 C20.18811972 22.1403498 18.34198833 23.38988302 16 25 C10.45665962 21.38477801 10.45665962 21.38477801 9.15625 17.44140625 C8.67818579 14.96320574 8.28241345 12.50763667 8 10 C5.525 9.505 5.525 9.505 3 9 C2.67 7.35 2.34 5.7 2 4 C1.67 4.66 1.34 5.32 1 6 C-2.58744918 7.09616503 -5.44323763 7.24967327 -9 6 C-10.3125 3.9375 -10.3125 3.9375 -11 2 C-7.35176961 -0.33486745 -4.25589957 -0.30399283 0 0 Z " fill="#F90E33" transform="translate(42,9)"/>
<path d="M0 0 C0 1.32 0 2.64 0 4 C0.99 4 1.98 4 3 4 C3 4.66 3 5.32 3 6 C2.34 6 1.68 6 1 6 C1 6.66 1 7.32 1 8 C1.66 8.33 2.32 8.66 3 9 C1.68 9 0.36 9 -1 9 C-1 7.68 -1 6.36 -1 5 C-2.98 5 -4.96 5 -7 5 C-7 6.32 -7 7.64 -7 9 C-5.35 9 -3.7 9 -2 9 C-2 10.65 -2 12.3 -2 14 C-3.65 14 -5.3 14 -7 14 C-7 15.32 -7 16.64 -7 18 C-5.35 18 -3.7 18 -2 18 C-2 19.32 -2 20.64 -2 22 C1.63 22 5.26 22 9 22 C9 22.33 9 22.66 9 23 C7.35473791 23.17221435 5.70874089 23.33740831 4.0625 23.5 C3.14597656 23.5928125 2.22945312 23.685625 1.28515625 23.78125 C-2.80149512 24.05336947 -6.90429879 24 -11 24 C-11 16.41 -11 8.82 -11 1 C-7.1273408 0.0318352 -3.96388638 -0.07622858 0 0 Z " fill="#F7F4D0" transform="translate(11,40)"/>
<path d="M0 0 C1.98 0 3.96 0 6 0 C7 6.75 7 6.75 7 9 C7.66 9 8.32 9 9 9 C9 9.66 9 10.32 9 11 C9.99 11 10.98 11 12 11 C12 11.66 12 12.32 12 13 C19.59 13 27.18 13 35 13 C34.67 14.32 34.34 15.64 34 17 C31.49502996 18.25248502 29.79146726 18.11374406 26.9921875 18.09765625 C26.00605469 18.09443359 25.01992188 18.09121094 24.00390625 18.08789062 C22.97136719 18.07951172 21.93882813 18.07113281 20.875 18.0625 C19.31458984 18.05573242 19.31458984 18.05573242 17.72265625 18.04882812 C15.14838038 18.03701952 12.57421854 18.02055075 10 18 C9.34 16.68 8.68 15.36 8 14 C7.34 14 6.68 14 6 14 C6 12.35 6 10.7 6 9 C4.35 9 2.7 9 1 9 C0.67 6.03 0.34 3.06 0 0 Z " fill="#F3AC16" transform="translate(14,9)"/>
<path d="M0 0 C1.134375 0.020625 2.26875 0.04125 3.4375 0.0625 C3.4375 1.3825 3.4375 2.7025 3.4375 4.0625 C4.4275 4.0625 5.4175 4.0625 6.4375 4.0625 C6.4375 4.7225 6.4375 5.3825 6.4375 6.0625 C5.7775 6.0625 5.1175 6.0625 4.4375 6.0625 C4.4375 6.7225 4.4375 7.3825 4.4375 8.0625 C5.0975 8.3925 5.7575 8.7225 6.4375 9.0625 C5.1175 9.0625 3.7975 9.0625 2.4375 9.0625 C2.4375 7.7425 2.4375 6.4225 2.4375 5.0625 C0.4575 5.0625 -1.5225 5.0625 -3.5625 5.0625 C-3.5625 6.3825 -3.5625 7.7025 -3.5625 9.0625 C-1.9125 9.0625 -0.2625 9.0625 1.4375 9.0625 C1.4375 10.7125 1.4375 12.3625 1.4375 14.0625 C-0.2125 14.0625 -1.8625 14.0625 -3.5625 14.0625 C-3.8925 15.0525 -4.2225 16.0425 -4.5625 17.0625 C-4.58934679 14.41659986 -4.60926357 11.77096904 -4.625 9.125 C-4.63337891 8.37025391 -4.64175781 7.61550781 -4.65039062 6.83789062 C-4.65902441 4.91255687 -4.61474333 2.98714419 -4.5625 1.0625 C-3.5625 0.0625 -3.5625 0.0625 0 0 Z " fill="#96702E" transform="translate(7.5625,39.9375)"/>
<path d="M0 0 C1.65 0 3.3 0 5 0 C5 1.32 5 2.64 5 4 C4.34 4 3.68 4 3 4 C3 5.32 3 6.64 3 8 C3.99 8 4.98 8 6 8 C6 8.66 6 9.32 6 10 C7.32 10 8.64 10 10 10 C10 10.66 10 11.32 10 12 C6.7 12.33 3.4 12.66 0 13 C0 11.35 0 9.7 0 8 C-1.65 8 -3.3 8 -5 8 C-5 6.68 -5 5.36 -5 4 C-3.35 4 -1.7 4 0 4 C0 2.68 0 1.36 0 0 Z " fill="#C09439" transform="translate(26,36)"/>
<path d="M0 0 C1.65 0 3.3 0 5 0 C5.33 6.6 5.66 13.2 6 20 C5.67 19.34 5.34 18.68 5 18 C4.01 18 3.02 18 2 18 C1.67 18.66 1.34 19.32 1 20 C1 15.05 1 10.1 1 5 C0.34 5 -0.32 5 -1 5 C-0.67 3.35 -0.34 1.7 0 0 Z " fill="#F9AD02" transform="translate(14,23)"/>
<path d="M0 0 C1.98 0 3.96 0 6 0 C6 1.32 6 2.64 6 4 C7.65 4 9.3 4 11 4 C11 6.64 11 9.28 11 12 C9.68 12 8.36 12 7 12 C7 11.01 7 10.02 7 9 C7.99 9 8.98 9 10 9 C10 7.68 10 6.36 10 5 C9.67 5.99 9.34 6.98 9 8 C8.01 8 7.02 8 6 8 C6 10.97 6 13.94 6 17 C5.67 15.68 5.34 14.36 5 13 C3.35 13 1.7 13 0 13 C0 11.68 0 10.36 0 9 C1.65 9 3.3 9 5 9 C5 7.35 5 5.7 5 4 C3.35 4 1.7 4 0 4 C0 2.68 0 1.36 0 0 Z " fill="#4C1A03" transform="translate(4,45)"/>
<path d="M0 0 C1.65 0 3.3 0 5 0 C5 1.32 5 2.64 5 4 C3.35 4 1.7 4 0 4 C0 5.32 0 6.64 0 8 C1.65 8 3.3 8 5 8 C4.67 8.99 4.34 9.98 4 11 C4 10.34 4 9.68 4 9 C0.87802522 10.3089572 0.87802522 10.3089572 -1 13 C-6.75 13.125 -6.75 13.125 -9 12 C-9 11.34 -9 10.68 -9 10 C-8.34 10 -7.68 10 -7 10 C-6.34 8.35 -5.68 6.7 -5 5 C-4.01 5 -3.02 5 -2 5 C-1.34 3.35 -0.68 1.7 0 0 Z " fill="#7E4803" transform="translate(21,36)"/>
<path d="M0 0 C1.34977849 0.63270867 2.68352881 1.30062468 4 2 C6.32495277 2.38749213 8.65851268 2.72982839 11 3 C11 3.66 11 4.32 11 5 C4.25 5.125 4.25 5.125 2 4 C1.67 4.66 1.34 5.32 1 6 C-2.58744918 7.09616503 -5.44323763 7.24967327 -9 6 C-10.3125 3.9375 -10.3125 3.9375 -11 2 C-7.35176961 -0.33486745 -4.25589957 -0.30399283 0 0 Z " fill="#D8D3B2" transform="translate(42,9)"/>
<path d="M0 0 C0.66 0.33 1.32 0.66 2 1 C1.67 1.66 1.34 2.32 1 3 C1.66 3 2.32 3 3 3 C3.33 2.01 3.66 1.02 4 0 C5 1 5 1 5.09765625 2.84765625 C5.04882812 5.92382812 5.04882812 5.92382812 5 9 C3.35 9 1.7 9 0 9 C0 10.32 0 11.64 0 13 C-0.99 12.67 -1.98 12.34 -3 12 C-2.67 10.68 -2.34 9.36 -2 8 C-3.32 8 -4.64 8 -6 8 C-5.67 6.35 -5.34 4.7 -5 3 C-3.68 3 -2.36 3 -1 3 C-0.67 2.01 -0.34 1.02 0 0 Z " fill="#622F0C" transform="translate(10,9)"/>
<path d="M0 0 C1.32 0 2.64 0 4 0 C4 1.32 4 2.64 4 4 C3.01 4 2.02 4 1 4 C1 4.99 1 5.98 1 7 C2.32 7 3.64 7 5 7 C5.33 4.69 5.66 2.38 6 0 C6.99 0 7.98 0 9 0 C9 1.32 9 2.64 9 4 C8.01 4 7.02 4 6 4 C6 4.99 6 5.98 6 7 C7.32 7 8.64 7 10 7 C10 8.65 10 10.3 10 12 C6.7 12 3.4 12 0 12 C0 9.03 0 6.06 0 3 C0.99 3 1.98 3 3 3 C3 2.34 3 1.68 3 1 C2.01 0.67 1.02 0.34 0 0 Z " fill="#9E6006" transform="translate(10,50)"/>
<path d="M0 0 C0 0.66 0 1.32 0 2 C0.99 2.33 1.98 2.66 3 3 C2.01 3 1.02 3 0 3 C0 3.99 0 4.98 0 6 C0.99 6.33 1.98 6.66 3 7 C2.01 7 1.02 7 0 7 C0 7.99 0 8.98 0 10 C0.99 10.33 1.98 10.66 3 11 C1.02 11.33 -0.96 11.66 -3 12 C-3 11.34 -3 10.68 -3 10 C-4.32 9.67 -5.64 9.34 -7 9 C-6.51058824 3.49411765 -6.51058824 3.49411765 -4.0625 1.125 C-2 0 -2 0 0 0 Z " fill="#76480F" transform="translate(27,7)"/>
<path d="M0 0 C0.93457031 0.00966797 1.86914062 0.01933594 2.83203125 0.02929688 C3.80011719 0.05443359 4.76820312 0.07957031 5.765625 0.10546875 C7.24095703 0.12577148 7.24095703 0.12577148 8.74609375 0.14648438 C11.16982915 0.18178149 13.59244645 0.23108821 16.015625 0.29296875 C16.015625 1.28296875 16.015625 2.27296875 16.015625 3.29296875 C7.765625 3.29296875 -0.484375 3.29296875 -8.984375 3.29296875 C-4.484375 -0.08203125 -4.484375 -0.08203125 0 0 Z " fill="#704304" transform="translate(36.984375,2.70703125)"/>
<path d="M0 0 C0.33 0.99 0.66 1.98 1 3 C2.32 3 3.64 3 5 3 C4.625 5.4375 4.625 5.4375 4 8 C3.01 8.495 3.01 8.495 2 9 C1.34786708 11.02463255 1.34786708 11.02463255 1 13 C-0.32 13 -1.64 13 -3 13 C-3 11.02 -3 9.04 -3 7 C-2.01 7 -1.02 7 0 7 C0 4.69 0 2.38 0 0 Z " fill="#83581E" transform="translate(3,14)"/>
<path d="M0 0 C1.32 0 2.64 0 4 0 C4 3.3 4 6.6 4 10 C2.35 10 0.7 10 -1 10 C-1.02689216 8.52093108 -1.04634621 7.04172517 -1.0625 5.5625 C-1.07410156 4.73878906 -1.08570313 3.91507813 -1.09765625 3.06640625 C-1 1 -1 1 0 0 Z " fill="#D39514" transform="translate(38,35)"/>
<path d="M0 0 C2.97 0.495 2.97 0.495 6 1 C5.67 2.65 5.34 4.3 5 6 C3.2709226 6.02725341 1.54171824 6.04650987 -0.1875 6.0625 C-1.63189453 6.07990234 -1.63189453 6.07990234 -3.10546875 6.09765625 C-5.85576513 6.00486622 -8.32479591 5.62111685 -11 5 C-11 4.67 -11 4.34 -11 4 C-7.7 4 -4.4 4 -1 4 C-0.67 2.68 -0.34 1.36 0 0 Z " fill="#B1A78B" transform="translate(43,53)"/>
<path d="M0 0 C1.98 0 3.96 0 6 0 C7.15941038 3.47823115 6.70820884 5.45895578 6 9 C4.35 9 2.7 9 1 9 C0.67 6.03 0.34 3.06 0 0 Z " fill="#F9BA2E" transform="translate(14,9)"/>
<path d="M0 0 C1.32 0 2.64 0 4 0 C3.67 4.29 3.34 8.58 3 13 C2.01 13 1.02 13 0 13 C0 8.71 0 4.42 0 0 Z " fill="#844C03" transform="translate(0,27)"/>
<path d="M0 0 C1.65 0 3.3 0 5 0 C5 1.65 5 3.3 5 5 C5.66 5.33 6.32 5.66 7 6 C6.34 6 5.68 6 5 6 C5 10.29 5 14.58 5 19 C4.67 19 4.34 19 4 19 C4 14.38 4 9.76 4 5 C2.35 5 0.7 5 -1 5 C-0.67 3.35 -0.34 1.7 0 0 Z " fill="#522512" transform="translate(15,18)"/>
<path d="M0 0 C0.33 0.99 0.66 1.98 1 3 C2.65 3 4.3 3 6 3 C6.33 4.32 6.66 5.64 7 7 C3.04 6.67 -0.92 6.34 -5 6 C-5 5.01 -5 4.02 -5 3 C-3.35 3 -1.7 3 0 3 C0 2.01 0 1.02 0 0 Z " fill="#451204" transform="translate(36,51)"/>
<path d="M0 0 C1.98 0 3.96 0 6 0 C6 1.32 6 2.64 6 4 C6.99 4 7.98 4 9 4 C9 4.66 9 5.32 9 6 C8.34 6 7.68 6 7 6 C7 6.66 7 7.32 7 8 C7.66 8.33 8.32 8.66 9 9 C7.68 9 6.36 9 5 9 C5 7.35 5 5.7 5 4 C3.35 4 1.7 4 0 4 C0 2.68 0 1.36 0 0 Z " fill="#FCC242" transform="translate(5,40)"/>
<path d="M0 0 C1.32 0 2.64 0 4 0 C4 1.32 4 2.64 4 4 C3.01 4 2.02 4 1 4 C1 4.99 1 5.98 1 7 C2.32 7 3.64 7 5 7 C5 8.65 5 10.3 5 12 C3.35 12 1.7 12 0 12 C0 9.03 0 6.06 0 3 C0.99 3 1.98 3 3 3 C3 2.34 3 1.68 3 1 C2.01 0.67 1.02 0.34 0 0 Z " fill="#C38E14" transform="translate(10,50)"/>
<path d="M0 0 C1.32 0.33 2.64 0.66 4 1 C4 1.66 4 2.32 4 3 C3.01 3 2.02 3 1 3 C1 5.97 1 8.94 1 12 C0.67 10.68 0.34 9.36 0 8 C-1.65 8 -3.3 8 -5 8 C-5 6.68 -5 5.36 -5 4 C-3.35 4 -1.7 4 0 4 C0 2.68 0 1.36 0 0 Z " fill="#4E1F07" transform="translate(9,50)"/>
<path d="M0 0 C1.98 0 3.96 0 6 0 C6 0.66 6 1.32 6 2 C7.32 2 8.64 2 10 2 C10 2.66 10 3.32 10 4 C6.7 4.33 3.4 4.66 0 5 C0 3.35 0 1.7 0 0 Z " fill="#9D6403" transform="translate(26,44)"/>
<path d="M0 0 C1.2065625 0.0309375 1.2065625 0.0309375 2.4375 0.0625 C2.4375 1.3825 2.4375 2.7025 2.4375 4.0625 C0.7875 4.0625 -0.8625 4.0625 -2.5625 4.0625 C-2.5625 5.3825 -2.5625 6.7025 -2.5625 8.0625 C-0.9125 8.0625 0.7375 8.0625 2.4375 8.0625 C2.1075 9.0525 1.7775 10.0425 1.4375 11.0625 C1.4375 10.4025 1.4375 9.7425 1.4375 9.0625 C-0.2125 9.7225 -1.8625 10.3825 -3.5625 11.0625 C-3.58938151 9.41675434 -3.60884123 7.77088587 -3.625 6.125 C-3.63660156 5.20847656 -3.64820312 4.29195312 -3.66015625 3.34765625 C-3.52086326 0.08820018 -3.27895972 0.07997463 0 0 Z " fill="#441205" transform="translate(23.5625,35.9375)"/>
<path d="M0 0 C0 0.66 0 1.32 0 2 C0.66 2 1.32 2 2 2 C2 2.99 2 3.98 2 5 C0.35 5.66 -1.3 6.32 -3 7 C-4.32 5.68 -5.64 4.36 -7 3 C-3.375 0 -3.375 0 0 0 Z " fill="#BEB497" transform="translate(38,9)"/>
<path d="M0 0 C0.33 0 0.66 0 1 0 C1.1953125 6.0546875 1.1953125 6.0546875 1 8 C0.34 8.66 -0.32 9.32 -1 10 C-1.99 10 -2.98 10 -4 10 C-4.33 10.99 -4.66 11.98 -5 13 C-5 12.34 -5 11.68 -5 11 C-5.66 11 -6.32 11 -7 11 C-7 9.68 -7 8.36 -7 7 C-4.69 7 -2.38 7 0 7 C0 4.69 0 2.38 0 0 Z " fill="#C7B99C" transform="translate(61,5)"/>
<path d="M0 0 C1.33804688 0.04060547 1.33804688 0.04060547 2.703125 0.08203125 C3.37859375 0.11683594 4.0540625 0.15164063 4.75 0.1875 C4.75 0.8475 4.75 1.5075 4.75 2.1875 C0.07798795 3.39318053 -4.46496292 3.28132426 -9.25 3.1875 C-6.10408067 0.38704377 -4.182936 -0.16511589 0 0 Z " fill="#653A0C" transform="translate(37.25,2.8125)"/>
<path d="M0 0 C0.99 0 1.98 0 3 0 C4.35439668 2.70879335 4.06501451 5.00933268 4 8 C3.67 7.34 3.34 6.68 3 6 C2.01 6 1.02 6 0 6 C-0.33 6.66 -0.66 7.32 -1 8 C-1.125 2.25 -1.125 2.25 0 0 Z " fill="#F0BF54" transform="translate(16,35)"/>
<path d="M0 0 C1.65 0 3.3 0 5 0 C5 1.65 5 3.3 5 5 C3.35 5 1.7 5 0 5 C0 3.35 0 1.7 0 0 Z " fill="#F4B119" transform="translate(37,49)"/>
<path d="M0 0 C1.65 0.33 3.3 0.66 5 1 C4.01 1.495 4.01 1.495 3 2 C3 2.66 3 3.32 3 4 C3.66 4.33 4.32 4.66 5 5 C4.01 5.33 3.02 5.66 2 6 C1.67 6.66 1.34 7.32 1 8 C-0.32 7.67 -1.64 7.34 -3 7 C-2.01 7 -1.02 7 0 7 C0 4.69 0 2.38 0 0 Z " fill="#592703" transform="translate(3,33)"/>
<path d="M0 0 C1.65 0 3.3 0 5 0 C5 2.64 5 5.28 5 8 C3.68 8 2.36 8 1 8 C1 7.01 1 6.02 1 5 C1.99 5 2.98 5 4 5 C4 3.68 4 2.36 4 1 C3.01 1 2.02 1 1 1 C0.67 1.99 0.34 2.98 0 4 C0 2.68 0 1.36 0 0 Z " fill="#F1D897" transform="translate(15,49)"/>
<path d="M0 0 C1.98 0 3.96 0 6 0 C6 2.64 6 5.28 6 8 C4.68 8 3.36 8 2 8 C2 7.01 2 6.02 2 5 C2.99 5 3.98 5 5 5 C5 3.68 5 2.36 5 1 C3.35 1 1.7 1 0 1 C0 0.67 0 0.34 0 0 Z " fill="#431003" transform="translate(9,49)"/>
<path d="M0 0 C0.99 0 1.98 0 3 0 C3 2.31 3 4.62 3 7 C2.01 7 1.02 7 0 7 C0 4.69 0 2.38 0 0 Z " fill="#CF9516" transform="translate(0,33)"/>
<path d="M0 0 C1.65 0 3.3 0 5 0 C5 1.32 5 2.64 5 4 C3.35 4 1.7 4 0 4 C0 2.68 0 1.36 0 0 Z " fill="#451306" transform="translate(15,58)"/>
<path d="M0 0 C1.32 0 2.64 0 4 0 C4 1.65 4 3.3 4 5 C2.68 5 1.36 5 0 5 C0 3.35 0 1.7 0 0 Z " fill="#E7A311" transform="translate(32,49)"/>
<path d="M0 0 C1.32 0 2.64 0 4 0 C4 1.65 4 3.3 4 5 C2.68 5 1.36 5 0 5 C0 3.35 0 1.7 0 0 Z " fill="#F7B831" transform="translate(5,49)"/>
<path d="M0 0 C1.65 0 3.3 0 5 0 C5 1.32 5 2.64 5 4 C3.35 4 1.7 4 0 4 C0 2.68 0 1.36 0 0 Z " fill="#DBA43C" transform="translate(10,18)"/>
<path d="M0 0 C0.66 0 1.32 0 2 0 C2 0.66 2 1.32 2 2 C2.99 2.33 3.98 2.66 5 3 C4.01 3 3.02 3 2 3 C2 3.99 2 4.98 2 6 C1.01 6 0.02 6 -1 6 C-1.042721 4.33388095 -1.04063832 2.66617115 -1 1 C-0.67 0.67 -0.34 0.34 0 0 Z " fill="#724006" transform="translate(25,7)"/>
<path d="M0 0 C2.97 0.495 2.97 0.495 6 1 C6 1.66 6 2.32 6 3 C1.545 3.495 1.545 3.495 -3 4 C-2.01 3.67 -1.02 3.34 0 3 C0 2.01 0 1.02 0 0 Z " fill="#F6CA57" transform="translate(30,45)"/>
<path d="M0 0 C1.32 0.33 2.64 0.66 4 1 C4 2.32 4 3.64 4 5 C2.68 5 1.36 5 0 5 C0 3.35 0 1.7 0 0 Z " fill="#826C54" transform="translate(0,22)"/>
</svg>
